#!OML:ASF H:\MichaelJackson\Top Level 1\Subject 1\Session 1\male.ASF
:FULLY-SPECIFIED
:DEGREES
119
root 5.65969 16.6661 -23.9307 8.91842 -6.51692 -1.7871
lowerback -4.94746 1.5604 -2.70453
upperback -1.14841 2.18745 1.66493
thorax 1.42354 1.08563 3.36262
lowerneck -8.34438 -0.12113 -2.80244
upperneck -3.52146 0.0893588 2.06429
head 0.297457 0.0947902 1.10864
rclavicle -8.29926e-015 -1.27222e-014
rhumerus -34.7667 14.2619 -91.2237
rradius 48.6961
rwrist 7.64335
rhand -28.0439 -22.8604
rfingers 7.12502
rthumb -1.42829 -52.8354
lclavicle -8.29926e-015 -1.27222e-014
lhumerus -42.7181 5.23295 87.8679
lradius 37.7484
lwrist 6.96725
lhand -14.3701 6.1218
lfingers 7.12502
lthumb 11.7723 35.771
rfemur -13.0189 -0.40471 18.0324
rtibia 35.9681
rfoot -24.1261 -11.4511
rtoes 2.72845
lfemur -32.6256 11.4568 -18.6054
ltibia 42.0473
lfoot -16.4688 3.56561
ltoes 19.0799
120
root 5.66499 16.6685 -23.9181 8.89335 -6.26067 -1.77914
lowerback -4.96168 1.5359 -2.68723
upperback -1.12949 2.15426 1.66586
thorax 1.45416 1.06825 3.35292
lowerneck -8.38403 -0.107805 -2.81565
upperneck -3.39355 0.10826 2.05214
head 0.343616 0.104184 1.10835
rclavicle -7.8023e-015 -2.98177e-015
rhumerus -34.9239 14.3261 -91.2332
rradius 48.9525
rwrist 7.68679
rhand -27.974 -22.7242
rfingers 7.12502
rthumb -1.36084 -52.6996
lclavicle -7.8023e-015 -2.98177e-015
lhumerus -42.4837 5.06795 87.8658
lradius 38.0272
lwrist 7.20179
lhand -14.447 6.14982
lfingers 7.12502
lthumb 11.698 35.8032
rfemur -12.9651 -0.238022 17.987
rtibia 35.8991
rfoot -24.1666 -11.286
rtoes 2.55229
lfemur -32.5802 11.327 -18.6249
ltibia 42.0301
lfoot -16.4846 3.4236
ltoes 19.1354
121
root 5.66874 16.6702 -23.9073 8.86296 -6.02591 -1.77261
lowerback -4.97705 1.52641 -2.67378
upperback -1.10889 2.14132 1.66549
thorax 1.48547 1.06096 3.34522
lowerneck -8.42537 -0.0960268 -2.8258
upperneck -3.24685 0.124785 2.04304
head 0.39608 0.112325 1.10858
rclavicle -4.37326e-015 -2.46493e-014
rhumerus -35.091 14.3795 -91.2427
rradius 49.1748
rwrist 7.69558
rhand -27.8781 -22.6078
rfingers 7.12502
rthumb -1.2682 -52.5838
lclavicle -4.37326e-015 -2.46493e-014
lhumerus -42.2418 4.91569 87.8612
lradius 38.3333
lwrist 7.43639
lhand -14.511 6.16204
lfingers 7.12502
lthumb 11.6364 35.8189
rfemur -12.9117 -0.0311639 17.9448
rtibia 35.8159
rfoot -24.2434 -11.1009
rtoes 2.38973
lfemur -32.5331 11.2027 -18.6331
ltibia 42.019
lfoot -16.4949 3.30621
ltoes 19.1832
122
root 5.67094 16.6714 -23.8985 8.82707 -5.81595 -1.76133
lowerback -4.99107 1.53067 -2.66921
upperback -1.08538 2.14722 1.66133
thorax 1.51738 1.06301 3.33969
lowerneck -8.46973 -0.0854413 -2.83652
upperneck -3.08579 0.139781 2.0413
head 0.453723 0.119744 1.11134
rclavicle -3.10601e-015 -1.27222e-014
rhumerus -35.2587 14.4298 -91.2556
rradius 49.3589
rwrist 7.6613
rhand -27.793 -22.5151
rfingers 7.12502
rthumb -1.18601 -52.4916
lclavicle -3.10601e-015 -1.27222e-014
lhumerus -41.9923 4.77532 87.8542
lradius 38.6722
lwrist 7.67105
lhand -14.5785 6.19054
lfingers 7.12502
lthumb 11.5713 35.8511
rfemur -12.8672 0.196214 17.8993
rtibia 35.7287
rfoot -24.3323 -10.9114
rtoes 2.10677
lfemur -32.4869 11.0929 -18.6385
ltibia 42.0151
lfoot -16.4984 3.19705
ltoes 19.2424
123
root 5.67155 16.6719 -23.8918 8.78387 -5.62628 -1.74205
lowerback -5.00219 1.54579 -2.67715
upperback -1.05686 2.16826 1.65372
thorax 1.55133 1.07249 3.3385
lowerneck -8.52264 -0.0761475 -2.85166
upperneck -2.90938 0.153563 2.04754
head 0.517821 0.126669 1.11754
rclavicle -3.19298e-015 3.57812e-015
rhumerus -35.4197 14.4837 -91.2712
rradius 49.5021
rwrist 7.57883
rhand -27.7763 -22.3823
rfingers 7.12502
rthumb -1.16984 -52.3588
lclavicle -3.19298e-015 3.57812e-015
lhumerus -41.7401 4.64602 87.8474
lradius 39.0496
lwrist 7.9142
lhand -14.6401 6.20223
lfingers 7.12502
lthumb 11.5119 35.8661
rfemur -12.8331 0.43918 17.8489
rtibia 35.6465
rfoot -24.4391 -10.7068
rtoes 1.82971
lfemur -32.4419 11.0014 -18.6453
ltibia 42.0181
lfoot -16.4923 3.08593
ltoes 19.3028
124
root 5.67044 16.6718 -23.8876 8.7376 -5.44977 -1.71629
lowerback -5.00649 1.56677 -2.69703
upperback -1.02986 2.19767 1.6429
thorax 1.57894 1.08624 3.34093
lowerneck -8.56946 -0.0657111 -2.8665
upperneck -2.725 0.168591 2.0591
head 0.583538 0.134212 1.1255
rclavicle 3.19671e-014 1.82882e-014
rhumerus -35.5764 14.5473 -91.2965
rradius 49.6005
rwrist 7.45695
rhand -27.7309 -22.305
rfingers 7.12502
rthumb -1.12601 -52.2818
lclavicle 3.19671e-014 1.82882e-014
lhumerus -41.4972 4.52697 87.8382
lradius 39.4682
lwrist 8.17147
lhand -14.7199 6.20975
lfingers 7.12502
lthumb 11.4349 35.8779
rfemur -12.8155 0.689905 17.7989
rtibia 35.5741
rfoot -24.5503 -10.5043
rtoes 1.54415
lfemur -32.4059 10.9316 -18.6529
ltibia 42.0288
lfoot -16.4736 2.95585
ltoes 19.4024
125
root 5.66747 16.6713 -23.8865 8.69663 -5.25986 -1.6916
lowerback -5.00312 1.58499 -2.72108
upperback -1.00494 2.22346 1.63262
thorax 1.60021 1.09831 3.34576
lowerneck -8.61781 -0.0553775 -2.8861
upperneck -2.53417 0.183848 2.07814
head 0.651737 0.141983 1.13679
rclavicle 7.1811e-015 2.22639e-014
rhumerus -35.714 14.6229 -91.3289
rradius 49.6467
rwrist 7.3113
rhand -27.6388 -22.2752
rfingers 7.12502
rthumb -1.03708 -52.2525
lclavicle 7.1811e-015 2.22639e-014
lhumerus -41.2638 4.41382 87.8305
lradius 39.9335
lwrist 8.45487
lhand -14.8228 6.21223
lfingers 7.12502
lthumb 11.3357 35.8859
rfemur -12.8252 0.923219 17.7652
rtibia 35.5172
rfoot -24.6453 -10.3346
rtoes 1.20289
lfemur -32.3939 10.873 -18.6541
ltibia 42.0466
lfoot -16.4354 2.7884
ltoes 19.5392
